<svg width="141" height="141" viewBox="0 0 141 141" fill="none" xmlns="http://www.w3.org/2000/svg">
<circle cx="70.5" cy="70.5" r="70.5" fill="#181818"/>
<path d="M31.5321 51.3266C35.9501 51.3266 38.7651 54.3677 38.7651 59.3973V70.0022H36.2629V59.5142C36.2629 56.0053 34.1516 53.7439 31.1411 53.7439C27.7005 53.7049 25.4329 55.8493 25.4329 60.7229V70.0022H22.9697V59.5142C22.9697 55.9663 20.8585 53.7439 17.9653 53.7439C15.033 53.7439 12.2179 55.5374 12.1397 59.9041V70.0022H9.63751V51.7945H12.1397V55.0305C13.039 52.6132 15.6976 51.3266 18.3953 51.3266C21.3276 51.3266 23.7908 52.8862 24.8073 55.6933C26.2148 52.1064 29.3817 51.3266 31.5321 51.3266Z" fill="white"/>
<path d="M46.0534 46.8429C45.0369 46.8429 44.1376 46.1021 44.1376 45.0884C44.1376 44.0357 45.0369 43.2949 46.0534 43.2949C47.1481 43.2949 48.0083 44.0357 48.0083 45.0884C48.0083 46.1021 47.1481 46.8429 46.0534 46.8429ZM47.3045 70.0022H44.8023V51.7945H47.3045V70.0022Z" fill="white"/>
<path d="M56.048 70.0022H53.5457V41.8914H56.048V70.0022Z" fill="white"/>
<path d="M79.3748 60.8398C79.3748 61.1907 79.3357 61.5806 79.2966 61.9315H63.5794C64.0095 65.8304 66.7463 68.0917 70.4215 68.0917C72.9237 68.0917 75.1523 66.8831 76.3643 64.8947L78.5146 65.8304C76.9116 68.7545 73.7838 70.47 70.3433 70.47C65.1824 70.47 61.0772 66.6102 61.0772 60.8398C61.0772 55.0695 65.1824 51.3266 70.3433 51.3266C75.5432 51.3266 79.3748 55.0695 79.3748 60.8398ZM63.6185 59.7872H76.8725C76.5207 56.0053 73.9011 53.7049 70.3433 53.7049C66.7463 53.7049 64.1268 55.8883 63.6185 59.7872Z" fill="white"/>
<path d="M102.765 70.47C97.5645 70.47 93.2247 66.6492 93.2247 60.8788C93.2247 55.1085 97.5645 51.3266 102.765 51.3266C107.964 51.3266 112.343 55.1085 112.343 60.8788C112.343 66.6492 107.964 70.47 102.765 70.47ZM102.765 68.0917C106.596 68.0917 109.841 65.1676 109.841 60.8788C109.841 56.5901 106.596 53.7049 102.765 53.7049C98.8939 53.7049 95.727 56.5901 95.727 60.8788C95.727 65.1676 98.8939 68.0917 102.765 68.0917Z" fill="white"/>
<path d="M126.622 44.2697H125.253C121.813 44.2697 120.835 46.57 120.835 49.4941V51.7945H125.488V53.9389H120.835V70.0022H118.333V53.9389H114.736V51.7945H118.333V49.7671C118.333 45.2054 120.131 41.8914 124.901 41.8914H126.622V44.2697Z" fill="white"/>
<path d="M0 70.756H19.7442V73.1733H11.1428V97.6191H8.56233V73.1733H0V70.756Z" fill="white"/>
<path d="M31.8259 78.9436C36.2439 78.9436 39.2544 81.9847 39.2544 87.0142V97.6191H36.7522V87.1312C36.7522 83.6222 34.5236 81.3999 31.5913 81.3999C28.659 81.3999 25.5703 83.1154 25.4921 87.5211V97.6191H22.9899V69.5083H25.4921V82.6865C26.5869 80.0742 29.5583 78.9436 31.8259 78.9436Z" fill="white"/>
<path d="M53.0298 78.9436C54.0464 78.9436 55.2193 79.1385 55.923 79.4894L55.4539 81.8677C54.5155 81.4778 53.6554 81.3609 52.9907 81.3609C48.6509 81.3609 47.3216 86.2734 47.3216 90.7571V97.6191H44.7803V79.4114H47.3216V83.8562C48.2209 80.776 50.1757 78.9436 53.0298 78.9436Z" fill="white"/>
<path d="M75.0273 88.4568C75.0273 88.8077 74.9882 89.1976 74.9491 89.5485H59.232C59.662 93.4474 62.3989 95.7087 66.074 95.7087C68.5763 95.7087 70.8048 94.5001 72.0168 92.5116L74.1672 93.4474C72.5642 96.3715 69.4364 98.087 65.9958 98.087C60.835 98.087 56.7297 94.2271 56.7297 88.4568C56.7297 82.6865 60.835 78.9436 65.9958 78.9436C71.1958 78.9436 75.0273 82.6865 75.0273 88.4568ZM59.2711 87.4041H72.5251C72.1732 83.6222 69.5537 81.3219 65.9958 81.3219C62.3989 81.3219 59.7793 83.5053 59.2711 87.4041Z" fill="white"/>
<path d="M94.7138 82.9594V79.4114H97.216V97.6191H94.7138V93.8372C93.3845 96.3325 90.5695 98.087 87.3244 98.087C82.359 98.087 78.1756 93.9152 78.1756 88.4958C78.1756 83.1933 82.2026 78.9436 87.4026 78.9436C90.5304 78.9436 93.3454 80.4641 94.7138 82.9594ZM87.6372 95.7087C91.4296 95.7087 94.7138 92.6676 94.7138 88.5738C94.7138 84.324 91.2732 81.3219 87.5981 81.3219C83.7665 81.3219 80.6387 84.5969 80.6387 88.4958C80.6387 92.4337 83.7665 95.7087 87.6372 95.7087Z" fill="white"/>
<path d="M118.299 82.9204V69.5083H120.801V97.6191H118.299V94.0712C116.93 96.5665 114.076 98.087 111.027 98.087C105.944 98.087 101.76 94.0322 101.76 88.4958C101.76 82.9594 105.905 78.9436 111.027 78.9436C114.115 78.9436 116.93 80.4251 118.299 82.9204ZM111.222 95.7087C115.015 95.7087 118.299 92.7846 118.299 88.5738C118.299 84.1681 114.858 81.3219 111.222 81.3219C107.391 81.3219 104.263 84.441 104.263 88.4568C104.263 92.5116 107.391 95.7087 111.222 95.7087Z" fill="white"/>
<path d="M131.757 98.087C128.59 98.087 125.424 96.2545 125.111 92.7846H127.418C127.691 94.3051 129.099 95.8647 131.757 95.8647C134.377 95.8647 135.98 94.5001 135.98 92.6676C135.98 91.186 134.963 90.2113 133.087 89.7434L130.467 89.1196C127.887 88.4958 125.815 87.1702 125.815 84.1291C125.815 81.1659 128.356 78.9436 131.836 78.9436C134.885 78.9436 137.7 80.6201 137.817 83.8951H135.393C135.276 82.2576 133.673 81.1659 131.875 81.1659C129.763 81.1659 128.317 82.4526 128.317 84.1681C128.317 85.8836 129.803 86.6243 131.132 86.9363L133.83 87.5991C137.387 88.4568 138.482 90.6012 138.482 92.7066C138.482 95.9426 135.55 98.087 131.757 98.087Z" fill="white"/>
</svg>
